<svg width="42" height="36" viewBox="0 0 42 36" fill="none" xmlns="http://www.w3.org/2000/svg">
<path d="M19.2857 21.5357C19.2857 18.8739 17.1261 16.7143 14.4643 16.7143H8.83929C7.50837 16.7143 6.42857 15.6345 6.42857 14.3036V13.5C6.42857 9.95926 9.31641 7.07143 12.8571 7.07143H14.4643C15.3432 7.07143 16.0714 6.34319 16.0714 5.46428V2.25C16.0714 1.37109 15.3432 0.642855 14.4643 0.642855H12.8571C5.77567 0.642855 0 6.41853 0 13.5V31.1786C0 33.8404 2.1596 36 4.82143 36H14.4643C17.1261 36 19.2857 33.8404 19.2857 31.1786V21.5357ZM41.7857 21.5357C41.7857 18.8739 39.6261 16.7143 36.9643 16.7143H31.3393C30.0084 16.7143 28.9286 15.6345 28.9286 14.3036V13.5C28.9286 9.95926 31.8164 7.07143 35.3571 7.07143H36.9643C37.8432 7.07143 38.5714 6.34319 38.5714 5.46428V2.25C38.5714 1.37109 37.8432 0.642855 36.9643 0.642855H35.3571C28.2757 0.642855 22.5 6.41853 22.5 13.5V31.1786C22.5 33.8404 24.6596 36 27.3214 36H36.9643C39.6261 36 41.7857 33.8404 41.7857 31.1786V21.5357Z" fill="#D1D1D1"/>
</svg>
